<svg width="186" height="49" viewBox="0 0 186 49" fill="none" xmlns="http://www.w3.org/2000/svg">
<path d="M51.2598 24.9923H12.2598C9.25977 23.9923 9.25977 18.9923 12.2598 17.4923C14.5451 16.3494 19.7598 16.9923 19.2598 21.9923" stroke="#EF272C" stroke-width="2"/>
<line y1="30.9922" x2="51.2599" y2="30.9922" stroke="#EF272C" stroke-width="2"/>
<path d="M92.4598 35.04C91.0731 35.04 90.3798 34.1467 90.3798 32.36C90.3798 30.2 91.4331 27.3867 93.5398 23.92C91.7531 23.7333 90.8598 23.3867 90.8598 22.88C90.8598 22.4 91.3931 22.16 92.4598 22.16C92.7264 22.16 93.4331 22.2 94.5798 22.28C99.2731 15.2667 103.033 10.9733 105.86 9.4C105.886 9.37333 105.966 9.36 106.1 9.36C106.793 9.36 107.14 10.0133 107.14 11.32C107.14 12.1733 107.02 12.7467 106.78 13.04C106.753 13.1467 106.726 13.2933 106.7 13.48C106.7 13.6667 106.7 13.8933 106.7 14.16C106.7 15.5733 106.753 16.96 106.86 18.32C106.966 19.6533 107.126 20.96 107.34 22.24L109.34 22C109.766 21.9467 110.14 21.9067 110.46 21.88C110.806 21.8267 111.113 21.8 111.38 21.8C111.513 21.8 111.58 21.8267 111.58 21.88C111.58 22.04 110.94 22.24 109.66 22.48C108.38 22.6667 107.66 22.8933 107.5 23.16C107.873 26.0667 108.486 28.2 109.34 29.56C109.873 30.4133 110.38 30.84 110.86 30.84C111.02 30.84 111.22 30.7867 111.46 30.68C111.7 30.5467 111.833 30.48 111.86 30.48C111.913 30.5333 111.94 30.56 111.94 30.56C111.94 30.56 111.54 31.1067 110.74 32.2C110.42 32.5467 110.086 32.72 109.74 32.72C108.646 32.72 107.753 31.2933 107.06 28.44C106.873 27.5867 106.7 26.6933 106.54 25.76C106.406 24.8267 106.313 23.8667 106.26 22.88C102.953 23.2 100.313 23.44 98.3398 23.6C96.3664 23.76 95.0731 23.8533 94.4598 23.88C92.5398 27.32 91.5798 29.9733 91.5798 31.84C91.5798 33.3067 92.2464 34.04 93.5798 34.04C94.1664 34.04 94.8998 33.88 95.7798 33.56V33.64C95.7798 33.8267 95.2998 34.1067 94.3398 34.48C93.3798 34.8533 92.7531 35.04 92.4598 35.04ZM101.5 22.44C103.126 22.44 104.713 22.4 106.26 22.32C106.126 21.7067 105.98 20.96 105.82 20.08C105.686 19.1733 105.553 18.12 105.42 16.92L104.86 11.4C102.06 13.3733 98.9264 17 95.4598 22.28C96.5531 22.3333 97.5931 22.3733 98.5798 22.4C99.5931 22.4267 100.566 22.44 101.5 22.44ZM115.844 33.08C114.031 33.08 113.124 32.5867 113.124 31.6C113.124 31.3067 113.218 31.16 113.404 31.16L114.204 31.92C114.124 31.36 114.084 30.7467 114.084 30.08C114.084 29.7067 114.084 29.4 114.084 29.16C114.084 28.8933 114.098 28.6667 114.124 28.48C114.418 24.4533 114.644 21.2 114.804 18.72C114.964 16.24 115.044 14.52 115.044 13.56C115.044 10.8933 114.524 9.56 113.484 9.56C113.244 9.56 113.004 9.6 112.764 9.68C112.738 9.70667 112.698 9.72 112.644 9.72C112.538 9.72 112.484 9.65333 112.484 9.52C112.484 9.33333 112.951 9.08 113.884 8.76C114.764 8.41333 115.378 8.24 115.724 8.24C116.338 8.24 116.644 8.78667 116.644 9.88C116.644 11.3467 116.524 13.28 116.284 15.68C116.098 17.4667 115.911 19.3867 115.724 21.44C115.564 23.4933 115.418 25.6667 115.284 27.96C115.711 26.6533 116.444 25.36 117.484 24.08C118.711 22.5333 119.884 21.76 121.004 21.76C121.938 21.76 122.404 22.5467 122.404 24.12C122.404 26.36 121.871 28.3333 120.804 30.04C119.578 32.0667 117.924 33.08 115.844 33.08ZM115.524 32.4C117.098 32.4 118.444 31.5733 119.564 29.92C120.578 28.3733 121.084 26.7867 121.084 25.16C121.084 23.7467 120.764 23.04 120.124 23.04C119.404 23.04 118.578 23.68 117.644 24.96C116.231 26.9333 115.524 28.7467 115.524 30.4C115.524 30.5333 115.538 30.72 115.564 30.96C115.591 31.1733 115.604 31.3467 115.604 31.48C115.604 31.9067 115.511 32.2133 115.324 32.4H115.524ZM125.285 31.92C124.032 31.92 123.405 30.6667 123.405 28.16C123.405 27.2267 123.485 26.2933 123.645 25.36C123.805 24.4267 124.032 23.4933 124.325 22.56C124.565 21.8133 124.979 21.1733 125.565 20.64C126.179 20.08 126.859 19.8 127.605 19.8C127.872 19.8 128.019 19.8533 128.045 19.96C127.992 20.0667 127.925 20.0933 127.845 20.04C126.779 20.3067 125.979 21.4 125.445 23.32C125.259 24.0133 125.112 24.7333 125.005 25.48C124.925 26.2267 124.885 27 124.885 27.8C124.885 29.7467 125.205 30.72 125.845 30.72C126.725 30.72 127.405 29.76 127.885 27.84C128.205 26.5067 128.365 25.16 128.365 23.8C128.365 22.92 128.219 22.2533 127.925 21.8C127.632 21.32 127.485 21.12 127.485 21.2C127.485 20.9867 127.632 20.88 127.925 20.88C128.725 20.88 129.125 21.88 129.125 23.88C129.125 25.4 128.832 26.9867 128.245 28.64C127.499 30.8267 126.512 31.92 125.285 31.92ZM131.111 31.84C130.604 31.84 130.351 31.2133 130.351 29.96C130.351 29.4 130.418 28.6667 130.551 27.76C130.684 26.8267 130.884 25.72 131.151 24.44C131.044 24.2 130.991 23.8933 130.991 23.52C130.991 22.16 131.578 21.2933 132.751 20.92C132.858 20.9467 132.911 21.08 132.911 21.32C132.911 21.5067 132.698 22.36 132.271 23.88C131.791 25.5867 131.551 27.16 131.551 28.6C131.551 29.72 131.764 30.28 132.191 30.28C132.911 30.28 133.911 29.0267 135.191 26.52C136.284 24.3867 136.964 22.7467 137.231 21.6C137.391 20.9867 137.778 20.68 138.391 20.68C138.711 20.68 138.871 20.8 138.871 21.04C138.871 21.1733 138.778 21.4 138.591 21.72C138.431 22.04 138.338 22.2533 138.311 22.36C137.911 24.1467 137.711 25.8667 137.711 27.52C137.711 29.44 138.151 30.4 139.031 30.4C139.511 30.4 140.111 29.88 140.831 28.84C141.551 27.7733 141.924 27.24 141.951 27.24C142.058 27.24 142.111 27.3067 142.111 27.44C142.111 27.8133 141.564 28.6267 140.471 29.88C139.404 31.08 138.671 31.68 138.271 31.68C137.151 31.68 136.591 30.4933 136.591 28.12C136.591 27.8267 136.618 27.3867 136.671 26.8C136.724 26.1867 136.804 25.4267 136.911 24.52C136.591 25.1333 136.204 25.8 135.751 26.52C135.324 27.2133 134.844 27.9467 134.311 28.72C132.844 30.8 131.778 31.84 131.111 31.84ZM144.9 32.88C143.913 32.88 143.42 31.5867 143.42 29C143.42 28.3067 143.46 27.2533 143.54 25.84C143.62 24.4 143.753 22.6133 143.94 20.48C142.073 20.72 140.98 20.84 140.66 20.84C140.42 20.84 140.3 20.7867 140.3 20.68C140.3 20.3867 140.526 20.12 140.98 19.88C141.353 19.6667 141.7 19.56 142.02 19.56C142.153 19.56 142.22 19.5733 142.22 19.6C142.193 19.6267 142.18 19.6533 142.18 19.68C142.18 19.7067 142.166 19.7467 142.14 19.8H142.26C142.58 19.8 143.153 19.76 143.98 19.68C144.06 19.5467 144.1 18.9867 144.1 18C144.1 15.4133 143.833 14.12 143.3 14.12C143.14 14.12 142.86 14.2 142.46 14.36C142.086 14.52 141.886 14.6 141.86 14.6L141.74 14.52C141.766 14.4933 141.793 14.4667 141.82 14.44C141.846 14.4133 141.886 14.3867 141.94 14.36L143.26 13.12C143.98 12.4533 144.406 12.0933 144.54 12.04C145.126 12.04 145.42 12.8933 145.42 14.6C145.42 15.1333 145.393 15.8133 145.34 16.64C145.286 17.44 145.206 18.3867 145.1 19.48C145.473 19.4533 145.806 19.44 146.1 19.44C146.42 19.4133 146.673 19.4 146.86 19.4C148.22 19.4 148.993 19.5733 149.18 19.92C149.073 20.08 148.953 20.16 148.82 20.16C148.66 20.16 148.406 20.1467 148.06 20.12C147.74 20.0933 147.5 20.08 147.34 20.08C147.126 20.08 146.82 20.1067 146.42 20.16C146.046 20.1867 145.593 20.2267 145.06 20.28C144.926 21.4533 144.82 22.5467 144.74 23.56C144.66 24.5467 144.62 25.4267 144.62 26.2C144.62 29.8267 145.073 31.64 145.98 31.64C146.54 31.64 147.113 31.16 147.7 30.2C147.806 30.2 147.86 30.2933 147.86 30.48C147.86 30.8533 147.46 31.3467 146.66 31.96C145.886 32.5733 145.3 32.88 144.9 32.88ZM172.811 32.44C171.185 32.44 170.371 30.48 170.371 26.56C170.371 25.9733 170.398 25.3067 170.451 24.56C170.505 23.7867 170.585 22.9333 170.691 22C171.011 19.1467 171.171 17.6267 171.171 17.44C169.518 20.6133 167.691 23.52 165.691 26.16C162.678 30.0533 160.171 32 158.171 32C157.131 32 156.611 30.8133 156.611 28.44C156.611 26.36 157.038 23.88 157.891 21C158.105 20.3333 158.411 19.4 158.811 18.2C159.238 17 159.785 15.5333 160.451 13.8C160.025 14.1467 159.611 14.32 159.211 14.32C158.918 14.32 158.611 14.2 158.291 13.96C157.998 13.6933 157.851 13.4267 157.851 13.16C157.851 13.0267 157.905 12.96 158.011 12.96C158.065 12.9867 158.105 13 158.131 13C158.158 13 158.185 13.0133 158.211 13.04C158.451 13.3867 158.705 13.56 158.971 13.56C159.531 13.56 160.051 13.08 160.531 12.12C160.638 11.9067 160.771 11.64 160.931 11.32C161.118 10.9733 161.318 10.5867 161.531 10.16C161.585 10.1067 161.665 10.08 161.771 10.08C162.491 10.08 162.851 10.36 162.851 10.92C162.851 10.9733 162.825 11.08 162.771 11.24C161.598 13.3467 160.558 15.8 159.651 18.6C158.665 21.64 158.171 24.2267 158.171 26.36C158.171 28.84 158.651 30.08 159.611 30.08C161.265 30.08 163.265 28.4267 165.611 25.12C166.385 24.0267 167.118 22.8933 167.811 21.72C168.531 20.52 169.211 19.2667 169.851 17.96C170.118 17.4533 170.371 16.9067 170.611 16.32C170.851 15.7067 171.091 15.0667 171.331 14.4C171.358 14.08 171.398 13.68 171.451 13.2C171.505 12.72 171.571 12.16 171.651 11.52C171.838 10.0533 172.291 9.32 173.011 9.32C173.651 9.32 173.971 9.62667 173.971 10.24L173.571 12.04C172.985 14.6267 172.558 16.9867 172.291 19.12C172.025 21.2533 171.891 23.1733 171.891 24.88C171.891 28.6667 172.718 30.56 174.371 30.56C175.251 30.56 176.145 29.6667 177.051 27.88C177.131 27.88 177.185 27.9733 177.211 28.16C177.211 28.2133 177.198 28.2533 177.171 28.28C176.691 29.24 176.105 30.1067 175.411 30.88C174.505 31.92 173.638 32.44 172.811 32.44ZM179.636 33.4C178.383 33.4 177.53 32.8133 177.076 31.64C176.97 31.4 176.916 31.2 176.916 31.04C176.916 30.8533 177.01 30.76 177.196 30.76C177.303 30.76 177.383 30.8267 177.436 30.96C177.81 32.1333 178.49 32.72 179.476 32.72C180.543 32.72 181.076 32.2 181.076 31.16C181.076 30.5733 180.61 29.5733 179.676 28.16C178.743 26.7467 178.276 25.5867 178.276 24.68C178.276 23.48 178.836 22.2667 179.956 21.04C181.076 19.8133 182.223 19.2 183.396 19.2C184.276 19.2 184.716 19.6 184.716 20.4C184.716 20.6667 184.516 21.0667 184.116 21.6C183.743 22.1333 183.45 22.4 183.236 22.4C183.21 22.3733 183.196 22.3467 183.196 22.32C183.196 22.2933 183.303 22.12 183.516 21.8C183.73 21.48 183.836 21.2267 183.836 21.04C183.836 20.8533 183.703 20.76 183.436 20.76C182.583 20.76 181.69 21.1867 180.756 22.04C179.85 22.8667 179.396 23.72 179.396 24.6C179.396 25.4 179.89 26.4533 180.876 27.76C181.89 29.0933 182.396 30.16 182.396 30.96C182.396 31.68 182.116 32.2667 181.556 32.72C181.023 33.1733 180.383 33.4 179.636 33.4Z" fill="white"/>
</svg>
