<svg width="114" height="28" viewBox="0 0 114 28" fill="none" xmlns="http://www.w3.org/2000/svg">
<path d="M5.69977 27.96C4.68643 27.96 4.17977 26.6133 4.17977 23.92C4.17977 22.9867 4.25977 21.6 4.41977 19.76C4.52643 18.8267 4.5931 18.0133 4.61977 17.32C4.6731 16.6 4.69977 16.0133 4.69977 15.56C4.3531 15.7467 4.0731 15.84 3.85977 15.84C3.7531 15.84 3.69977 15.7467 3.69977 15.56C3.69977 14.8667 4.1931 14.24 5.17977 13.68C5.73977 11.3067 6.01977 8.92 6.01977 6.52C6.01977 6.17333 6.01977 5.84 6.01977 5.52C6.01977 5.2 6.00643 4.88 5.97977 4.56C6.48643 3.65333 6.97977 3.2 7.45977 3.2C7.80643 3.2 7.97977 3.53333 7.97977 4.2C7.97977 4.70667 7.9131 5.36 7.77977 6.16C7.6731 6.93333 7.48643 7.82667 7.21977 8.84C6.73977 10.8667 6.49977 12.4 6.49977 13.44C6.68643 13.5733 6.92643 13.64 7.21977 13.64C8.57977 13.64 10.6331 12.7067 13.3798 10.84C16.2864 8.89333 17.7398 7.29333 17.7398 6.04C17.7398 4.04 14.7798 3.04 8.85977 3.04C7.4731 3.04 6.08643 3.08 4.69977 3.16C3.33977 3.24 1.9531 3.37333 0.539766 3.56C0.993099 2.2 1.6331 1.52 2.45977 1.52H4.17977C4.3131 1.52 4.45977 1.52 4.61977 1.52C4.80643 1.52 5.00643 1.50667 5.21977 1.48H5.93977C14.6598 1.48 19.0198 2.77333 19.0198 5.36C19.0198 7.68 16.2598 10.2267 10.7398 13C11.4064 13.1067 12.2331 13.2667 13.2198 13.48C14.2331 13.6667 15.3931 13.9067 16.6998 14.2C19.5798 14.92 21.0198 15.9333 21.0198 17.24C21.0198 18.4667 19.3398 20.2267 15.9798 22.52C14.6198 23.4267 13.3531 24.2133 12.1798 24.88C11.0331 25.5467 9.96643 26.0667 8.97977 26.44C8.8731 26.4667 8.77977 26.48 8.69977 26.48C8.64643 26.5067 8.5931 26.52 8.53977 26.52C8.24643 26.52 8.09977 26.3733 8.09977 26.08C8.09977 25.7333 8.45977 25.3867 9.17977 25.04L10.6998 24.44C15.9264 22.2533 18.5398 20.2133 18.5398 18.32C18.5398 17.0133 17.3131 16 14.8598 15.28C13.1531 14.7733 11.3931 14.52 9.57977 14.52C8.0331 14.52 6.92643 14.6933 6.25977 15.04C5.85977 16.6667 5.65977 18.72 5.65977 21.2C5.65977 24.48 6.12643 26.3067 7.05977 26.68C6.60643 27.5333 6.1531 27.96 5.69977 27.96ZM24.571 24.44C22.731 24.44 21.811 23.0533 21.811 20.28C21.811 19.8267 21.8243 19.3867 21.851 18.96C21.9043 18.5067 21.9843 18.0667 22.091 17.64C21.771 17.4267 21.611 17.2533 21.611 17.12C21.611 16.88 21.891 16.6667 22.451 16.48C22.7177 15.68 23.1043 14.7733 23.611 13.76C24.331 12.3733 24.8777 11.68 25.251 11.68C25.6777 11.68 25.9977 11.8667 26.211 12.24C26.371 11.8667 26.5577 11.68 26.771 11.68C27.5177 11.68 27.891 12.1333 27.891 13.04C27.891 13.7333 27.7577 14.3467 27.491 14.88C27.6777 15.0933 27.771 15.2933 27.771 15.48C27.771 15.5333 27.731 15.5867 27.651 15.64L25.411 16.36C24.9843 16.4933 24.5977 16.6667 24.251 16.88C23.931 17.0933 23.6377 17.32 23.371 17.56C23.0777 18.44 22.931 19.3867 22.931 20.4C22.931 22.64 23.6243 23.76 25.011 23.76C26.851 23.76 28.5843 22.2667 30.211 19.28C30.291 19.1467 30.3577 19.08 30.411 19.08C30.491 19.08 30.531 19.16 30.531 19.32C30.531 19.4533 30.491 19.6 30.411 19.76C29.771 21.04 28.9977 22.0933 28.091 22.92C26.9443 23.9333 25.771 24.44 24.571 24.44ZM23.851 16.16C24.1177 16.08 24.4243 15.9867 24.771 15.88C25.1443 15.7467 25.5443 15.5867 25.971 15.4C26.1043 15.2933 26.2777 14.96 26.491 14.4C26.6777 13.92 26.771 13.5333 26.771 13.24C26.771 12.8933 26.6377 12.72 26.371 12.72C26.0777 12.72 25.5977 13.2133 24.931 14.2C24.2377 15.16 23.8777 15.8133 23.851 16.16ZM32.4254 25.4C31.1721 25.4 30.3187 24.8133 29.8654 23.64C29.7587 23.4 29.7054 23.2 29.7054 23.04C29.7054 22.8533 29.7987 22.76 29.9854 22.76C30.0921 22.76 30.1721 22.8267 30.2254 22.96C30.5987 24.1333 31.2787 24.72 32.2654 24.72C33.3321 24.72 33.8654 24.2 33.8654 23.16C33.8654 22.5733 33.3987 21.5733 32.4654 20.16C31.5321 18.7467 31.0654 17.5867 31.0654 16.68C31.0654 15.48 31.6254 14.2667 32.7454 13.04C33.8654 11.8133 35.0121 11.2 36.1854 11.2C37.0654 11.2 37.5054 11.6 37.5054 12.4C37.5054 12.6667 37.3054 13.0667 36.9054 13.6C36.5321 14.1333 36.2387 14.4 36.0254 14.4C35.9987 14.3733 35.9854 14.3467 35.9854 14.32C35.9854 14.2933 36.0921 14.12 36.3054 13.8C36.5187 13.48 36.6254 13.2267 36.6254 13.04C36.6254 12.8533 36.4921 12.76 36.2254 12.76C35.3721 12.76 34.4787 13.1867 33.5454 14.04C32.6387 14.8667 32.1854 15.72 32.1854 16.6C32.1854 17.4 32.6787 18.4533 33.6654 19.76C34.6787 21.0933 35.1854 22.16 35.1854 22.96C35.1854 23.68 34.9054 24.2667 34.3454 24.72C33.8121 25.1733 33.1721 25.4 32.4254 25.4ZM42.1029 24.88C41.1162 24.88 40.6229 23.5867 40.6229 21C40.6229 20.3067 40.6629 19.2533 40.7429 17.84C40.8229 16.4 40.9562 14.6133 41.1429 12.48C39.2762 12.72 38.1829 12.84 37.8629 12.84C37.6229 12.84 37.5029 12.7867 37.5029 12.68C37.5029 12.3867 37.7296 12.12 38.1829 11.88C38.5562 11.6667 38.9029 11.56 39.2229 11.56C39.3562 11.56 39.4229 11.5733 39.4229 11.6C39.3962 11.6267 39.3829 11.6533 39.3829 11.68C39.3829 11.7067 39.3696 11.7467 39.3429 11.8H39.4629C39.7829 11.8 40.3562 11.76 41.1829 11.68C41.2629 11.5467 41.3029 10.9867 41.3029 10C41.3029 7.41333 41.0362 6.12 40.5029 6.12C40.3429 6.12 40.0629 6.2 39.6629 6.36C39.2896 6.52 39.0896 6.6 39.0629 6.6L38.9429 6.52C38.9696 6.49333 38.9962 6.46667 39.0229 6.44C39.0496 6.41333 39.0896 6.38667 39.1429 6.36L40.4629 5.12C41.1829 4.45333 41.6096 4.09333 41.7429 4.04C42.3296 4.04 42.6229 4.89333 42.6229 6.6C42.6229 7.13333 42.5962 7.81333 42.5429 8.64C42.4896 9.44 42.4096 10.3867 42.3029 11.48C42.6762 11.4533 43.0096 11.44 43.3029 11.44C43.6229 11.4133 43.8762 11.4 44.0629 11.4C45.4229 11.4 46.1962 11.5733 46.3829 11.92C46.2762 12.08 46.1562 12.16 46.0229 12.16C45.8629 12.16 45.6096 12.1467 45.2629 12.12C44.9429 12.0933 44.7029 12.08 44.5429 12.08C44.3296 12.08 44.0229 12.1067 43.6229 12.16C43.2496 12.1867 42.7962 12.2267 42.2629 12.28C42.1296 13.4533 42.0229 14.5467 41.9429 15.56C41.8629 16.5467 41.8229 17.4267 41.8229 18.2C41.8229 21.8267 42.2762 23.64 43.1829 23.64C43.7429 23.64 44.3162 23.16 44.9029 22.2C45.0096 22.2 45.0629 22.2933 45.0629 22.48C45.0629 22.8533 44.6629 23.3467 43.8629 23.96C43.0896 24.5733 42.5029 24.88 42.1029 24.88ZM54.6145 27.32C53.9745 27.32 53.6545 27.0933 53.6545 26.64C53.6545 25.9733 54.2678 25.48 55.4945 25.16C55.5478 25.1333 55.7078 25.0933 55.9745 25.04C56.2678 25.0133 56.6811 24.9467 57.2145 24.84C59.6145 24.4133 61.4011 23.8533 62.5745 23.16C64.5211 21.96 65.4945 20.84 65.4945 19.8C65.4945 18.7867 64.4811 17.8 62.4545 16.84C61.8145 16.5467 61.0278 16.1867 60.0945 15.76C59.1611 15.3333 58.0678 14.8267 56.8145 14.24C54.7878 13.2533 53.7745 12.0933 53.7745 10.76C53.7745 8.97333 55.6145 7.10667 59.2945 5.16C62.6811 3.34667 65.3611 2.44 67.3345 2.44C69.0411 2.44 69.8945 2.92 69.8945 3.88C69.8945 5.66667 69.4811 7.30667 68.6545 8.8C68.2011 9.65333 67.8278 10.08 67.5345 10.08C67.4278 10.08 67.3745 9.97333 67.3745 9.76C67.3745 9.25333 67.5078 8.56 67.7745 7.68C68.0678 6.72 68.2145 6.01333 68.2145 5.56C68.2145 4.33333 67.4545 3.72 65.9345 3.72C64.3078 3.72 62.1211 4.38667 59.3745 5.72C56.3611 7.21333 54.8545 8.68 54.8545 10.12C54.8545 10.8133 55.1211 11.4667 55.6545 12.08C56.1878 12.6933 56.9878 13.2267 58.0545 13.68L63.9745 16.08C66.1078 16.96 67.1745 17.92 67.1745 18.96C67.1745 20.6133 65.4945 22.3467 62.1345 24.16C61.7078 24.3733 60.8811 24.7467 59.6545 25.28C58.4545 25.8133 56.8278 26.4933 54.7745 27.32H54.6145ZM72.696 24.44C70.856 24.44 69.936 23.0533 69.936 20.28C69.936 19.8267 69.9493 19.3867 69.976 18.96C70.0293 18.5067 70.1093 18.0667 70.216 17.64C69.896 17.4267 69.736 17.2533 69.736 17.12C69.736 16.88 70.016 16.6667 70.576 16.48C70.8427 15.68 71.2293 14.7733 71.736 13.76C72.456 12.3733 73.0027 11.68 73.376 11.68C73.8027 11.68 74.1227 11.8667 74.336 12.24C74.496 11.8667 74.6827 11.68 74.896 11.68C75.6427 11.68 76.016 12.1333 76.016 13.04C76.016 13.7333 75.8827 14.3467 75.616 14.88C75.8027 15.0933 75.896 15.2933 75.896 15.48C75.896 15.5333 75.856 15.5867 75.776 15.64L73.536 16.36C73.1093 16.4933 72.7227 16.6667 72.376 16.88C72.056 17.0933 71.7627 17.32 71.496 17.56C71.2027 18.44 71.056 19.3867 71.056 20.4C71.056 22.64 71.7493 23.76 73.136 23.76C74.976 23.76 76.7093 22.2667 78.336 19.28C78.416 19.1467 78.4827 19.08 78.536 19.08C78.616 19.08 78.656 19.16 78.656 19.32C78.656 19.4533 78.616 19.6 78.536 19.76C77.896 21.04 77.1227 22.0933 76.216 22.92C75.0693 23.9333 73.896 24.44 72.696 24.44ZM71.976 16.16C72.2427 16.08 72.5493 15.9867 72.896 15.88C73.2693 15.7467 73.6693 15.5867 74.096 15.4C74.2293 15.2933 74.4027 14.96 74.616 14.4C74.8027 13.92 74.896 13.5333 74.896 13.24C74.896 12.8933 74.7627 12.72 74.496 12.72C74.2027 12.72 73.7227 13.2133 73.056 14.2C72.3627 15.16 72.0027 15.8133 71.976 16.16ZM80.0704 26.08C79.1104 26.08 78.6304 24.88 78.6304 22.48C78.6304 22.1333 78.6304 21.8 78.6304 21.48C78.6571 21.16 78.6837 20.8267 78.7104 20.48C79.0037 16.72 79.2304 13.6 79.3904 11.12C79.5504 8.64 79.6304 6.78667 79.6304 5.56C79.6304 2.89333 79.1104 1.56 78.0704 1.56C77.8304 1.56 77.5904 1.6 77.3504 1.68C77.3237 1.70667 77.2837 1.72 77.2304 1.72C77.1237 1.72 77.0704 1.65333 77.0704 1.52C77.0704 1.33333 77.5371 1.08 78.4704 0.759999C79.3504 0.413332 79.9637 0.239998 80.3104 0.239998C80.9237 0.239998 81.2304 0.786665 81.2304 1.88C81.2304 2.46667 81.1904 3.25333 81.1104 4.24C81.0571 5.22667 80.9637 6.4 80.8304 7.76C80.1904 14.2667 79.8704 18.3867 79.8704 20.12C79.8704 23.2933 80.2971 24.88 81.1504 24.88C81.3637 24.88 81.5637 24.8133 81.7504 24.68C81.9371 24.5467 82.1237 24.3733 82.3104 24.16L82.9104 23.48C82.9904 23.48 83.0304 23.56 83.0304 23.72C83.0304 24.0667 82.6304 24.5467 81.8304 25.16C81.0571 25.7733 80.4704 26.08 80.0704 26.08ZM85.8516 26.08C84.8916 26.08 84.4116 24.88 84.4116 22.48C84.4116 22.1333 84.4116 21.8 84.4116 21.48C84.4383 21.16 84.465 20.8267 84.4916 20.48C84.785 16.72 85.0116 13.6 85.1716 11.12C85.3316 8.64 85.4116 6.78667 85.4116 5.56C85.4116 2.89333 84.8916 1.56 83.8516 1.56C83.6116 1.56 83.3716 1.6 83.1316 1.68C83.105 1.70667 83.065 1.72 83.0116 1.72C82.905 1.72 82.8516 1.65333 82.8516 1.52C82.8516 1.33333 83.3183 1.08 84.2516 0.759999C85.1316 0.413332 85.745 0.239998 86.0916 0.239998C86.705 0.239998 87.0116 0.786665 87.0116 1.88C87.0116 2.46667 86.9716 3.25333 86.8916 4.24C86.8383 5.22667 86.745 6.4 86.6116 7.76C85.9716 14.2667 85.6516 18.3867 85.6516 20.12C85.6516 23.2933 86.0783 24.88 86.9316 24.88C87.145 24.88 87.345 24.8133 87.5316 24.68C87.7183 24.5467 87.905 24.3733 88.0916 24.16L88.6916 23.48C88.7716 23.48 88.8116 23.56 88.8116 23.72C88.8116 24.0667 88.4116 24.5467 87.6116 25.16C86.8383 25.7733 86.2516 26.08 85.8516 26.08ZM91.9929 24.44C90.1529 24.44 89.2329 23.0533 89.2329 20.28C89.2329 19.8267 89.2462 19.3867 89.2729 18.96C89.3262 18.5067 89.4062 18.0667 89.5129 17.64C89.1929 17.4267 89.0329 17.2533 89.0329 17.12C89.0329 16.88 89.3129 16.6667 89.8729 16.48C90.1396 15.68 90.5262 14.7733 91.0329 13.76C91.7529 12.3733 92.2996 11.68 92.6729 11.68C93.0996 11.68 93.4196 11.8667 93.6329 12.24C93.7929 11.8667 93.9796 11.68 94.1929 11.68C94.9396 11.68 95.3129 12.1333 95.3129 13.04C95.3129 13.7333 95.1796 14.3467 94.9129 14.88C95.0996 15.0933 95.1929 15.2933 95.1929 15.48C95.1929 15.5333 95.1529 15.5867 95.0729 15.64L92.8329 16.36C92.4062 16.4933 92.0196 16.6667 91.6729 16.88C91.3529 17.0933 91.0596 17.32 90.7929 17.56C90.4996 18.44 90.3529 19.3867 90.3529 20.4C90.3529 22.64 91.0462 23.76 92.4329 23.76C94.2729 23.76 96.0062 22.2667 97.6329 19.28C97.7129 19.1467 97.7796 19.08 97.8329 19.08C97.9129 19.08 97.9529 19.16 97.9529 19.32C97.9529 19.4533 97.9129 19.6 97.8329 19.76C97.1929 21.04 96.4196 22.0933 95.5129 22.92C94.3662 23.9333 93.1929 24.44 91.9929 24.44ZM91.2729 16.16C91.5396 16.08 91.8462 15.9867 92.1929 15.88C92.5662 15.7467 92.9662 15.5867 93.3929 15.4C93.5262 15.2933 93.6996 14.96 93.9129 14.4C94.0996 13.92 94.1929 13.5333 94.1929 13.24C94.1929 12.8933 94.0596 12.72 93.7929 12.72C93.4996 12.72 93.0196 13.2133 92.3529 14.2C91.6596 15.16 91.2996 15.8133 91.2729 16.16ZM97.0873 25.2C97.0339 25.1467 97.0073 25.1067 97.0073 25.08C97.0339 24.8933 97.0739 24.56 97.1273 24.08C97.2073 23.6 97.3006 22.9467 97.4073 22.12C97.6206 20.52 97.7806 19.12 97.8873 17.92C97.9939 16.72 98.0473 15.72 98.0473 14.92C98.0473 14.0933 97.9806 13.4533 97.8473 13C97.7406 12.8933 97.5273 12.84 97.2073 12.84C97.0473 12.84 96.8073 12.88 96.4873 12.96C96.1673 13.04 95.9406 13.08 95.8073 13.08C95.6739 13.08 95.6073 13.04 95.6073 12.96C95.6073 12.88 95.9539 12.6533 96.6473 12.28C98.0873 11.5867 98.7539 11.24 98.6473 11.24C99.1539 11.24 99.4073 12 99.4073 13.52C99.4073 14.1867 99.2873 15.2 99.0473 16.56C98.9406 17.2267 98.8606 17.8133 98.8073 18.32C98.7539 18.8 98.7273 19.2133 98.7273 19.56V19.68C100.301 17.04 101.901 14.9067 103.527 13.28C104.141 12.8 104.714 12.56 105.247 12.56C105.327 12.56 105.367 12.5867 105.367 12.64C105.101 13.1733 104.887 13.6 104.727 13.92C104.594 14.24 104.501 14.4667 104.447 14.6C104.234 15.1333 104.061 15.8667 103.927 16.8C103.901 17.1467 103.821 17.32 103.687 17.32C103.234 17.32 103.007 16.68 103.007 15.4C103.007 15.2933 103.007 15.1867 103.007 15.08C103.007 14.9733 103.021 14.8667 103.047 14.76C102.381 15.4 101.767 16.08 101.207 16.8C100.674 17.52 100.181 18.28 99.7273 19.08C98.6339 21.0267 98.1406 22.7333 98.2473 24.2C98.1139 24.36 97.9406 24.52 97.7273 24.68C97.5406 24.84 97.3273 25.0133 97.0873 25.2ZM107.933 25.4C106.68 25.4 105.827 24.8133 105.373 23.64C105.267 23.4 105.213 23.2 105.213 23.04C105.213 22.8533 105.307 22.76 105.493 22.76C105.6 22.76 105.68 22.8267 105.733 22.96C106.107 24.1333 106.787 24.72 107.773 24.72C108.84 24.72 109.373 24.2 109.373 23.16C109.373 22.5733 108.907 21.5733 107.973 20.16C107.04 18.7467 106.573 17.5867 106.573 16.68C106.573 15.48 107.133 14.2667 108.253 13.04C109.373 11.8133 110.52 11.2 111.693 11.2C112.573 11.2 113.013 11.6 113.013 12.4C113.013 12.6667 112.813 13.0667 112.413 13.6C112.04 14.1333 111.747 14.4 111.533 14.4C111.507 14.3733 111.493 14.3467 111.493 14.32C111.493 14.2933 111.6 14.12 111.813 13.8C112.027 13.48 112.133 13.2267 112.133 13.04C112.133 12.8533 112 12.76 111.733 12.76C110.88 12.76 109.987 13.1867 109.053 14.04C108.147 14.8667 107.693 15.72 107.693 16.6C107.693 17.4 108.187 18.4533 109.173 19.76C110.187 21.0933 110.693 22.16 110.693 22.96C110.693 23.68 110.413 24.2667 109.853 24.72C109.32 25.1733 108.68 25.4 107.933 25.4Z" fill="white"/>
</svg>
