<svg width="18" height="21" viewBox="0 0 18 21" fill="none" xmlns="http://www.w3.org/2000/svg">
<path d="M5.75 9C5.75 7.20507 7.20507 5.75 9 5.75C10.7949 5.75 12.25 7.20507 12.25 9C12.25 10.7949 10.7949 12.25 9 12.25C7.20507 12.25 5.75 10.7949 5.75 9Z" fill="#EF272C"/>
<path fill-rule="evenodd" clip-rule="evenodd" d="M0.773543 7.87739C1.11718 3.70845 4.60097 0.5 8.78406 0.5H9.21599C13.3991 0.5 16.8829 3.70845 17.2265 7.87739C17.4115 10.122 16.7182 12.3508 15.2925 14.0943L10.4995 19.9561C9.72449 20.9039 8.27556 20.9039 7.50059 19.9561L2.70752 14.0943C1.28187 12.3508 0.588525 10.122 0.773543 7.87739ZM9 4.25C6.37665 4.25 4.25 6.37665 4.25 9C4.25 11.6234 6.37665 13.75 9 13.75C11.6234 13.75 13.75 11.6234 13.75 9C13.75 6.37665 11.6234 4.25 9 4.25Z" fill="#EF272C"/>
</svg>
