<svg width="52" height="52" viewBox="0 0 52 52" fill="none" xmlns="http://www.w3.org/2000/svg">
<circle opacity="0.8" cx="26" cy="26" r="26" fill="#F8E9FC"/>
<path d="M26.6782 28.4789L24.5907 30.5663C24.1506 31.0064 23.4511 31.0064 22.9997 30.5776C22.8756 30.4535 22.7515 30.3406 22.6274 30.2165C21.4652 29.043 20.4158 27.8131 19.4793 26.5268C18.554 25.2405 17.8093 23.9542 17.2677 22.6791C16.7374 21.3928 16.4666 20.1629 16.4666 18.9894C16.4666 18.2221 16.602 17.4887 16.8728 16.8117C17.1436 16.1234 17.5723 15.4915 18.1704 14.9273C18.8925 14.2165 19.6824 13.8667 20.5173 13.8667C20.8333 13.8667 21.1492 13.9344 21.4313 14.0698C21.7247 14.2052 21.9842 14.4083 22.1873 14.7017L24.8051 18.3914C25.0082 18.6735 25.1549 18.933 25.2564 19.1812C25.358 19.4182 25.4144 19.6551 25.4144 19.8695C25.4144 20.1403 25.3354 20.4111 25.1774 20.6706C25.0308 20.9302 24.8164 21.201 24.5456 21.4718L23.688 22.3632C23.5639 22.4873 23.5075 22.634 23.5075 22.8145C23.5075 22.9048 23.5188 22.9838 23.5413 23.074C23.5752 23.1643 23.609 23.232 23.6316 23.2997C23.8347 23.6721 24.1845 24.1573 24.681 24.744C25.1887 25.3307 25.7303 25.9288 26.3171 26.5268C26.4299 26.6396 26.554 26.7525 26.6669 26.8653C27.1182 27.3054 27.1295 28.0275 26.6782 28.4789Z" fill="#EF272C"/>
<path opacity="0.5" d="M39 32.2927C39 32.6087 38.9436 32.9359 38.8307 33.2518C38.7969 33.3421 38.763 33.4324 38.7179 33.5226C38.5261 33.9289 38.2778 34.3125 37.9506 34.6736C37.3977 35.2829 36.7884 35.7229 36.1001 36.005C36.0888 36.005 36.0775 36.0163 36.0663 36.0163C35.4005 36.2871 34.6784 36.4338 33.8998 36.4338C32.7489 36.4338 31.519 36.163 30.2214 35.6101C28.9238 35.0572 27.6262 34.3125 26.3398 33.376C25.8998 33.0487 25.4597 32.7215 25.0422 32.3717L28.732 28.682C29.0479 28.919 29.33 29.0995 29.5669 29.2236C29.6234 29.2462 29.6911 29.28 29.77 29.3139C29.8603 29.3477 29.9506 29.359 30.0521 29.359C30.2439 29.359 30.3906 29.2913 30.5148 29.1672L31.3723 28.3209C31.6544 28.0388 31.9252 27.8245 32.1847 27.6891C32.4442 27.5311 32.7038 27.4521 32.9858 27.4521C33.2002 27.4521 33.4259 27.4972 33.6741 27.5988C33.9224 27.7003 34.1819 27.847 34.464 28.0388L38.1988 30.6905C38.4922 30.8936 38.6953 31.1305 38.8194 31.4126C38.9323 31.6947 39 31.9768 39 32.2927Z" fill="#EF272C"/>
</svg>
